<svg width="49" height="48" viewBox="0 0 49 48" fill="none" xmlns="http://www.w3.org/2000/svg">
<path fill-rule="evenodd" clip-rule="evenodd" d="M24 42C34.2173 42 42.5 33.7173 42.5 23.5C42.5 13.2827 34.2173 5 24 5C13.7827 5 5.5 13.2827 5.5 23.5C5.5 33.7173 13.7827 42 24 42ZM24 44C35.3218 44 44.5 34.8218 44.5 23.5C44.5 12.1782 35.3218 3 24 3C12.6782 3 3.5 12.1782 3.5 23.5C3.5 34.8218 12.6782 44 24 44Z" fill="#DD0A34"/>
<path fill-rule="evenodd" clip-rule="evenodd" d="M15.9724 15.4715C16.3629 15.0809 16.9961 15.0809 17.3866 15.4715L32.0292 30.1141C32.4198 30.5046 32.4198 31.1378 32.0292 31.5283C31.6387 31.9188 31.0056 31.9188 30.615 31.5283L15.9724 16.8857C15.5819 16.4952 15.5819 15.862 15.9724 15.4715Z" fill="#DD0A34"/>
<path fill-rule="evenodd" clip-rule="evenodd" d="M32.0285 15.4715C32.4191 15.862 32.4191 16.4952 32.0285 16.8857L17.3859 31.5283C16.9954 31.9188 16.3622 31.9188 15.9717 31.5283C15.5812 31.1378 15.5812 30.5046 15.9717 30.1141L30.6143 15.4715C31.0048 15.0809 31.638 15.0809 32.0285 15.4715Z" fill="#DD0A34"/>
</svg>
