<svg width="32" height="32" viewBox="0 0 32 32" fill="none" xmlns="http://www.w3.org/2000/svg">
<circle cx="16" cy="16" r="16" fill="#F4F4F8"/>
<path d="M9.37325 15.6401L15.2325 9.99009C15.423 9.80639 15.7407 9.94139 15.7407 10.206V12.9684C15.7407 13.1429 15.8878 13.2801 16.0622 13.278C18.4726 13.2489 22.6797 14.7868 22.9827 21.2097C22.9954 21.4798 22.666 21.6159 22.4703 21.4292C19.5701 18.6631 17.0574 18.3918 15.9453 18.6499C15.8209 18.6787 15.7407 18.7939 15.7407 18.9215V21.794C15.7407 22.0586 15.423 22.1936 15.2325 22.0099L9.37325 16.3599C9.16934 16.1633 9.16934 15.8367 9.37325 15.6401Z" fill="#B9BDC6"/>
</svg>
