<svg width="24" height="24" viewBox="0 0 24 24" fill="none" xmlns="http://www.w3.org/2000/svg">
<path fill-rule="evenodd" clip-rule="evenodd" d="M22 12C22 6.47715 17.5228 2 12 2C6.47715 2 2 6.47715 2 12C2 17.5228 6.47715 22 12 22C17.5228 22 22 17.5228 22 12ZM8.36366 8.3636C8.01219 8.71508 8.01219 9.28492 8.36366 9.6364L10.7273 12L8.36366 14.3636C8.01219 14.7151 8.01219 15.2849 8.36366 15.6364C8.71514 15.9879 9.28498 15.9879 9.63646 15.6364L12.0001 13.2728L14.3637 15.6364C14.7151 15.9879 15.285 15.9879 15.6365 15.6364C15.9879 15.2849 15.9879 14.7151 15.6365 14.3636L13.2729 12L15.6365 9.6364C15.9879 9.28492 15.9879 8.71508 15.6365 8.3636C15.285 8.01213 14.7151 8.01213 14.3637 8.3636L12.0001 10.7272L9.63646 8.3636C9.28498 8.01213 8.71514 8.01213 8.36366 8.3636Z" fill="#B7B7CA"/>
</svg>
