<svg width="32" height="32" viewBox="0 0 32 32" fill="none" xmlns="http://www.w3.org/2000/svg">
<path fill-rule="evenodd" clip-rule="evenodd" d="M6.43597 5.18404C6 6.03968 6 7.15979 6 9.4V22.6C6 24.8402 6 25.9603 6.43597 26.816C6.81947 27.5686 7.43139 28.1805 8.18404 28.564C9.03968 29 10.1598 29 12.4 29H19.6C21.8402 29 22.9603 29 23.816 28.564C24.5686 28.1805 25.1805 27.5686 25.564 26.816C26 25.9603 26 24.8402 26 22.6V13H19.9102C17.701 13 15.9102 11.2091 15.9102 9V3H12.4C10.1598 3 9.03968 3 8.18404 3.43597C7.43139 3.81947 6.81947 4.43139 6.43597 5.18404ZM17.9102 3.02577V9C17.9102 10.1046 18.8056 11 19.9102 11H25.9125C25.843 10.7184 25.733 10.4484 25.5858 10.1982C25.4118 9.90235 25.1681 9.64573 24.6807 9.13251L20.2765 4.49468C19.7533 3.94366 19.4916 3.66815 19.1823 3.47084C18.9082 3.29593 18.6074 3.16677 18.2918 3.0884C18.1718 3.05862 18.0492 3.03887 17.9102 3.02577ZM11 20C10.4477 20 10 20.4477 10 21C10 21.5523 10.4477 22 11 22H15.5C16.0523 22 16.5 21.5523 16.5 21C16.5 20.4477 16.0523 20 15.5 20H11ZM10 17C10 16.4477 10.4477 16 11 16L20 16C20.5523 16 21 16.4477 21 17C21 17.5523 20.5523 18 20 18L11 18C10.4477 18 10 17.5523 10 17Z" fill="white"/>
</svg>
